<?xml version="1.0" standalone="no"?>
<!DOCTYPE svg PUBLIC "-//W3C//DTD SVG 20010904//EN"
 "http://www.w3.org/TR/2001/REC-SVG-20010904/DTD/svg10.dtd">
<svg version="1.0" xmlns="http://www.w3.org/2000/svg"
 width="512.000000pt" height="479.000000pt" viewBox="0 0 512.000000 479.000000"
 preserveAspectRatio="xMidYMid meet">

<g transform="translate(0.000000,479.000000) scale(0.100000,-0.100000)"
fill="#000000" stroke="none">
<path d="M761 4774 c-161 -43 -296 -187 -330 -352 -15 -73 -15 -1171 0 -1244
27 -131 124 -260 240 -318 34 -18 59 -36 56 -43 -2 -7 -35 -110 -73 -229 -38
-120 -71 -218 -74 -218 -3 0 -27 41 -53 90 l-48 90 -82 0 c-198 0 -317 -79
-287 -190 21 -77 129 -186 246 -247 30 -15 54 -30 53 -33 0 -3 -32 -29 -70
-59 -180 -137 -293 -359 -328 -646 -15 -124 -13 -383 4 -610 8 -104 15 -291
15 -415 0 -254 9 -291 72 -330 32 -19 50 -20 420 -20 l386 0 32 26 c48 41 60
73 60 164 l0 80 1560 0 1560 0 0 -80 c0 -92 13 -126 63 -164 l34 -26 384 0
c364 0 386 1 416 20 63 38 73 77 74 277 0 98 4 230 9 293 18 221 24 648 11
759 -25 215 -88 375 -202 515 -71 88 -138 178 -139 187 0 4 39 28 86 55 149
84 264 209 264 288 0 94 -116 156 -295 156 l-80 0 -44 -81 c-23 -44 -45 -79
-46 -77 -2 2 -32 118 -67 258 l-63 255 46 48 c53 55 102 147 118 225 15 73 15
1171 0 1244 -26 124 -128 262 -236 317 -106 53 -17 51 -1898 50 -1491 0 -1748
-2 -1794 -15z m3528 -134 c112 -19 194 -78 242 -176 l24 -49 0 -625 0 -625
-23 -43 c-35 -66 -88 -119 -150 -149 l-57 -28 -1765 0 -1765 0 -57 28 c-62 30
-115 83 -150 149 l-23 43 0 625 0 625 23 47 c28 56 92 122 144 149 20 10 61
23 90 28 78 13 3387 13 3467 1z m52 -2119 c38 -156 69 -290 69 -298 0 -11
-307 -13 -1800 -13 -990 0 -1800 3 -1800 8 -1 4 39 139 87 300 l88 292 1644
-2 1643 -3 69 -284z m-3353 -1170 c260 -33 310 -42 357 -66 65 -31 108 -80
135 -153 24 -63 25 -100 5 -128 -29 -43 -54 -45 -401 -42 -315 3 -331 4 -369
25 -59 31 -80 59 -125 162 -82 190 -72 239 50 240 25 1 181 -17 348 -38z
m3579 16 c11 -11 17 -31 16 -55 -2 -43 -63 -205 -97 -254 -26 -39 -76 -74
-125 -88 -20 -6 -168 -10 -344 -10 -243 0 -315 3 -342 14 -59 25 -69 69 -35
158 27 73 70 122 135 154 47 22 98 32 343 65 310 41 420 45 449 16z"/>
<path d="M1520 4194 c-107 -21 -165 -64 -191 -141 -7 -21 -13 -76 -13 -123 0
-106 23 -166 81 -204 42 -28 151 -56 220 -56 62 0 73 -7 73 -47 l0 -35 -147 5
c-82 4 -162 9 -178 12 l-31 7 -16 -94 c-10 -62 -12 -95 -5 -100 45 -28 384
-38 477 -13 72 19 99 41 134 108 25 49 29 68 29 139 1 166 -73 234 -276 259
l-97 12 0 32 c0 32 1 32 59 38 32 4 97 2 145 -3 48 -6 91 -8 95 -6 9 6 36 175
29 181 -19 19 -325 41 -388 29z"/>
<path d="M2070 3790 l0 -390 273 2 272 3 0 100 0 100 -147 3 -148 3 0 44 0 45
120 0 120 0 0 90 0 90 -120 0 -120 0 0 50 0 50 130 0 c72 0 130 1 130 3 0 1 7
40 15 87 8 47 15 91 15 98 0 9 -61 12 -270 12 l-270 0 0 -390z"/>
<path d="M2740 3790 l0 -390 248 2 247 3 0 100 0 100 -122 3 -123 3 0 284 0
285 -125 0 -125 0 0 -390z"/>
<path d="M3322 3793 l3 -388 245 0 245 0 0 100 0 100 -122 3 -123 3 0 284 0
285 -125 0 -125 0 2 -387z"/>
</g>
</svg>
